# xmcd
#
# Track frame offsets:
#	150
#	10360
#	27047
#	46362
#	62825
#	78607
#	98352
#	120002
#	143537
#	155850
#	171717
#	188695
#
# Disc length: 2742 seconds
#
# Revision: 2
# Processed by: cddbd v1.5.1PL0 Copyright (c) Steve Scherf et al.
# Submitted via: Audio-CD-Archiv 4.00.519
#
DISCID=930ab40c
DTITLE=Zerener - Make It To The Border
DYEAR=1995
DGENRE=country
TTITLE0=unbekannt - Saturday Night
TTITLE1=unbekannt - Make It To The Border
TTITLE2=unbekannt - One Of The Boys
TTITLE3=unbekannt - The River
TTITLE4=unbekannt - When The Sun Shines Tomorrow
TTITLE5=unbekannt - Gipsys Knife
TTITLE6=unbekannt - The Man I Didn't Know
TTITLE7=unbekannt - 1000 Miles
TTITLE8=unbekannt - Hey Little Girl
TTITLE9=unbekannt - I Better Be Careful
TTITLE10=unbekannt - Same Ol' Boy
TTITLE11=unbekannt - Wandering Soul
EXTD=
EXTT0=
EXTT1=
EXTT2=
EXTT3=
EXTT4=
EXTT5=
EXTT6=
EXTT7=
EXTT8=
EXTT9=
EXTT10=
EXTT11=
PLAYORDER=
